<?xml version="1.0" ?><svg data-name="Layer 1" id="Layer_1" viewBox="0 0 64 64" xmlns="http://www.w3.org/2000/svg"><defs><style>.cls-1{fill:#568b3e;}.cls-2{fill:#346a34;}.cls-3{fill:#fcb316;}.cls-4{fill:#f9a01b;}.cls-5{fill:#f78f1e;}.cls-6{fill:#f37021;}.cls-7{fill:#6d4d42;}.cls-8{fill:#5e4137;}</style></defs><polygon class="cls-1" points="57.03 39.27 57.75 44.14 53.79 44.76 52.57 49.49 48.74 48.08 46.28 52 43 49.16 39.72 52 37.26 48.08 33.43 49.49 32.21 44.76 28.25 44.14 28.97 39.28 26 36 60 36 57.03 39.27"/><polygon class="cls-2" points="57.03 39.27 57.75 44.14 53.79 44.76 52.57 49.49 48.74 48.08 46.28 52 43 49.16 43 36 60 36 57.03 39.27"/><polygon class="cls-1" points="34.02 36 26 36 28.97 39.28 28.25 44.14 32.21 44.76 32.24 44.89 28.76 45.79 28.14 49.75 23.28 49.03 20 52 16.73 49.03 11.86 49.75 11.24 45.79 6.51 44.57 7.92 40.74 4 38.28 6.84 35 4 31.72 7.92 29.26 6.51 25.43 11.24 24.21 11.86 20.25 16.72 20.97 20 18 23.27 20.97 28.14 20.25 28.76 24.21 33.49 25.43 32.08 29.26 36 31.72 33.16 35 34.02 36"/><polygon class="cls-2" points="34.02 36 26 36 28.97 39.28 28.25 44.14 32.21 44.76 32.24 44.89 28.76 45.79 28.14 49.75 23.28 49.03 20 52 20 18 23.27 20.97 28.14 20.25 28.76 24.21 33.49 25.43 32.08 29.26 36 31.72 33.16 35 34.02 36"/><path class="cls-3" d="M53,36a8.8393,8.8393,0,0,1-4.86,7.71,10.8852,10.8852,0,0,1-10.28,0A8.8393,8.8393,0,0,1,33,36Z"/><path class="cls-4" d="M53,36a8.8393,8.8393,0,0,1-4.86,7.71A10.7045,10.7045,0,0,1,43,45V36Z"/><path class="cls-5" d="M48.14,43.71a10.8852,10.8852,0,0,1-10.28,0L43,36Z"/><path class="cls-6" d="M48.14,43.71A10.7045,10.7045,0,0,1,43,45V36Z"/><polygon class="cls-7" points="22 12 22 19.82 20 18 18 19.82 18 12 22 12"/><polygon class="cls-8" points="22 12 22 19.82 20 18 20 12 22 12"/><path d="M60,35H34.4819l2.2744-2.6279a1.0072,1.0072,0,0,0-.2251-1.502l-3.2348-2.0263,1.1294-3.0694a1,1,0,0,0-.69-1.3144l-4.0942-1.0538-.5186-3.3085a1.0018,1.0018,0,0,0-1.1347-.834l-4.3926.6523L23,19.3744V12a1,1,0,0,0-1-1H18a1,1,0,0,0-1,1v7.374l-.5967.542-4.3945-.6514a.9977.9977,0,0,0-1.1343.835l-.5176,3.3086L6.2637,24.46a1.0007,1.0007,0,0,0-.6895,1.3144l1.1294,3.0684L3.4688,30.8691a1.0071,1.0071,0,0,0-.2251,1.502L5.5181,35,3.2437,37.6279a1.0072,1.0072,0,0,0,.2251,1.502l3.2348,2.0263L5.5742,44.2256A1,1,0,0,0,6.2637,45.54l4.0942,1.0538.5186,3.3085a1.0008,1.0008,0,0,0,1.1347.834l4.3926-.6523c4.4246,3.8849,2.7779,3.8676,7.1929,0l4.3945.6514a1.005,1.005,0,0,0,1.1343-.835l.5176-3.3086,1.8819-.4832.9369,3.6316a1.0062,1.0062,0,0,0,1.314.6885l3.0679-1.13,2.0288,3.2324a1.0067,1.0067,0,0,0,1.5014.2246L43,50.4824l2.626,2.2735a1.0055,1.0055,0,0,0,1.5014-.2247l2.0288-3.2324,3.0679,1.13a1,1,0,0,0,1.314-.6885l1.0561-4.0937,3.3106-.5186a1.0006,1.0006,0,0,0,.8345-1.1347l-.65-4.4014,2.6513-2.92A1.0064,1.0064,0,0,0,60,35ZM48.44,42.3572,44.8685,37h7.0622A7.778,7.778,0,0,1,48.44,42.3572Zm-7.8855,1.3265a9.4955,9.4955,0,0,1-1.215-.39L43,37.8027l3.6606,5.491A10.1728,10.1728,0,0,1,40.5546,43.6837ZM34.0693,37h7.0622L37.56,42.3572A7.7756,7.7756,0,0,1,34.0693,37ZM19,13h2v4.5574c-.266-.2558-.6093-.5865-1-.5574-.39-.0293-.7351.3019-1,.5574Zm8.769,32.6328-.4658,2.9785-3.8818-.5752a1.0161,1.0161,0,0,0-.8189.2491L20,50.6494l-2.6021-2.3642a1.0024,1.0024,0,0,0-.8193-.2491l-3.88.5762-.4668-2.9775a1,1,0,0,0-.7387-.8145l-3.66-.9414,1.0278-2.793a1.0006,1.0006,0,0,0-.4072-1.1933L5.52,38.0547c3.0912-3.6466,3.0773-2.4713,0-6.11l2.9341-1.8379a1.001,1.001,0,0,0,.4072-1.1933l-1.0273-2.791,3.6587-.9405a1.0005,1.0005,0,0,0,.7388-.8144l.4658-2.9785,3.8818.5752a.9986.9986,0,0,0,.8189-.2491L20,19.3506c.65.5909,1.9535,1.7751,2.6021,2.3642a1.0062,1.0062,0,0,0,.8193.2491l3.88-.5762.4668,2.9775a1,1,0,0,0,.7387.8145l3.66.9414-1.0278,2.793a1.0006,1.0006,0,0,0,.4072,1.1933l2.9341,1.8379-2.0772,2.4A.9963.9963,0,0,0,32.16,35H26a1.0065,1.0065,0,0,0-.7412,1.6709l2.6528,2.9307-.6509,4.3916a1.0353,1.0353,0,0,0,.7579,1.1191A1.0007,1.0007,0,0,0,27.769,45.6328Zm28.8467-2.3281-2.98.4668a1.0019,1.0019,0,0,0-.8135.7383l-.9439,3.66-2.792-1.0283a1.0011,1.0011,0,0,0-1.1928.4072l-1.84,2.9317c-3.6456-3.09-2.4691-3.0774-6.1064,0l-1.84-2.9317a1.0009,1.0009,0,0,0-1.1928-.4072L34.1221,48.17c-.05-.113-.9744-3.9825-1.0681-3.9421a1.0007,1.0007,0,0,0-.6893-.4563l-2.98-.4668.5747-3.8779a1,1,0,0,0-.2481-.8174L28.2544,37h3.8163c.6684,7.4552,10.2973,11.2563,16.5487,7.5872l.0007,0,0,0A9.85,9.85,0,0,0,53.9293,37h3.8114L56.29,38.5977a.9978.9978,0,0,0-.249.8183Z"/><path d="M18.6851,44.05c-.4761-.5328-1.8717-.0261-2.649.0234l-.26-1.6562a1.0006,1.0006,0,0,0-.7388-.8145l-1.9229-.4941.6211-1.6875a1.0012,1.0012,0,0,0-.4072-1.1934l-1.73-1.0839,1.2881-1.4893a1,1,0,0,0-1.5127-1.3085l-2.0512,2.371a1.0072,1.0072,0,0,0,.2251,1.5019l2.0312,1.2725-.7226,1.9639a1.0062,1.0062,0,0,0,.6894,1.3144l2.3569.6065.3116,1.9863a1.0045,1.0045,0,0,0,1.1347.835l2.3423-.3487,1.6367,1.4873a1,1,0,0,0,1.3447-1.48Z"/><path d="M26.2642,30.5791a1.0018,1.0018,0,0,0,.4072,1.1934l1.7148,1.0752a1.0006,1.0006,0,0,0,1.0625-1.6954l-1.0273-.6435.7226-1.9639a1.0062,1.0062,0,0,0-.6894-1.3144l-2.3569-.6065-.3116-1.9863a1.0038,1.0038,0,0,0-1.1347-.835l-2.3423.3487-1.6367-1.4873a1.0015,1.0015,0,0,0-1.3448,0L17.34,24.4688a1,1,0,0,0,1.3448,1.48L20,24.7549,21.3149,25.95c.4756.5331,1.8853.0239,2.649-.0234l.26,1.6562a1.0006,1.0006,0,0,0,.7388.8145l1.9229.4941Z"/></svg>