<?xml version="1.0" ?><svg data-name="Layer 1" id="Layer_1" viewBox="0 0 64 64" xmlns="http://www.w3.org/2000/svg"><defs><style>.cls-1{fill:#6d4d42;}.cls-2{fill:#5e4137;}.cls-3{fill:#f78c1e;}.cls-4{fill:#f47c20;}.cls-5{fill:#42a047;}.cls-6{fill:#378e43;}.cls-7{fill:#f05223;}.cls-8{fill:#e44c25;}</style></defs><path class="cls-1" d="M44,15.61l-3.93,3.93a7.3183,7.3183,0,0,0-3.61-3.61L40.39,12Z"/><path class="cls-2" d="M44,15.61l-3.93,3.93a7.49,7.49,0,0,0-1.48-2.13l3.61-3.6Z"/><path class="cls-3" d="M60,40a6.6039,6.6039,0,0,1-6.69,6.52,17.6408,17.6408,0,0,0-10.1,3.16,12.9871,12.9871,0,0,1-18.27-3.54L21,40l3.94-6.14a12.9871,12.9871,0,0,1,18.27-3.54,17.6408,17.6408,0,0,0,10.1,3.16A6.6039,6.6039,0,0,1,60,40Z"/><path class="cls-4" d="M60,40a6.6039,6.6039,0,0,1-6.69,6.52,17.6408,17.6408,0,0,0-10.1,3.16,12.9871,12.9871,0,0,1-18.27-3.54L21,40Z"/><path class="cls-5" d="M38.48,28.29a12.9073,12.9073,0,0,0-13.54,5.57L21,40l3.94,6.14a12.4165,12.4165,0,0,0,2.11,2.49,15.0547,15.0547,0,0,1-12.57,3.04l-8.35-1.8-1.8-8.35A15.3462,15.3462,0,0,1,16.62,23.39a21.0066,21.0066,0,0,0,11.02-5.8,7.6184,7.6184,0,1,1,10.84,10.7Z"/><path class="cls-6" d="M38.48,28.29a12.9073,12.9073,0,0,0-13.54,5.57L21,40l3.94,6.14a12.4165,12.4165,0,0,0,2.11,2.49,15.0547,15.0547,0,0,1-12.57,3.04l-8.35-1.8L38.59,17.41A7.7486,7.7486,0,0,1,38.48,28.29Z"/><path class="cls-7" d="M46,40s-4.03,4-9,4-9-4-9-4,4.03-4,9-4S46,40,46,40Z"/><path class="cls-8" d="M46,40s-4.03,4-9,4-9-4-9-4Z"/><path d="M53.3145,32.4814A16.5994,16.5994,0,0,1,43.78,29.5039,13.9912,13.9912,0,0,0,40.2194,27.72a8.8829,8.8829,0,0,0,1.0193-7.9386l3.4683-3.4683a1,1,0,0,0,0-1.4141L41.1006,11.293a1,1,0,0,0-1.4141,0l-3.4626,3.4626A8.8905,8.8905,0,0,0,26.9307,16.88a19.8184,19.8184,0,0,1-10.4932,5.5244C7.7318,23.8105,1.2848,33.12,3.3537,41.7316l1.7986,8.3495a1.0013,1.0013,0,0,0,.7666.7666l8.35,1.7988a15.9523,15.9523,0,0,0,12.7249-2.7341A14.08,14.08,0,0,0,43.78,50.497,16.5994,16.5994,0,0,1,53.3145,47.52,7.52,7.52,0,1,0,53.3145,32.4814ZM38.0967,15.7119l2.2969-2.2978,2.1923,2.1923-2.2978,2.2969A8.4055,8.4055,0,0,0,38.0967,15.7119ZM14.69,50.6914,6.9717,49.0283,5.3086,41.31A13.929,13.929,0,0,1,7.4131,30.5605a14.2942,14.2942,0,0,1,9.3838-6.1894,21.7986,21.7986,0,0,0,11.5478-6.0772,6.6122,6.6122,0,0,1,9.7744,8.9043,14.0422,14.0422,0,0,0-13.01,4.7557c-.8021.8461-4.231,6.45-4.9509,7.506a1.001,1.001,0,0,0,0,1.08c.9758,1.4169,4.1807,6.8327,5.3651,7.9776A13.9672,13.9672,0,0,1,14.69,50.6914ZM53.3145,45.52a18.5842,18.5842,0,0,0-10.6768,3.3369,12.0646,12.0646,0,0,1-14.894-.9444c-1.6567-1.3447-4.3326-6.14-5.5562-7.912.656-.9652,3.7628-6.04,4.48-6.7928A12.0811,12.0811,0,0,1,38.33,29.2681a11.9284,11.9284,0,0,1,4.3082,1.8764,18.5835,18.5835,0,0,0,10.6768,3.3369A5.52,5.52,0,1,1,53.3145,45.52Z"/><path d="M17.1553,26.34c-6.5565,1.0286-11.4362,8.08-9.8915,14.549l1.2548,5.826a1,1,0,0,0,1.955-.4218L9.2188,40.4668a9.9644,9.9644,0,0,1,1.52-7.6836,10.327,10.327,0,0,1,6.7744-4.4766A1,1,0,0,0,17.1553,26.34Z"/><path d="M37,35c-5.3213,0-9.5283,4.1152-9.7041,4.29A1.0007,1.0007,0,0,0,27,40c-.2319.76,4.66,4.9423,10,5,5.3214,0,9.5284-4.1153,9.7042-4.29A1.0007,1.0007,0,0,0,47,40C47.2319,39.24,42.34,35.0577,37,35Zm0,8c-3.2441,0-6.1172-1.9229-7.4717-3,4.7327-3.9293,10.2241-3.9183,14.9434,0C43.1172,41.0771,40.2441,43,37,43Z"/></svg>