<?xml version="1.0" ?><!DOCTYPE svg  PUBLIC '-//W3C//DTD SVG 1.1 Tiny//EN'  'http://www.w3.org/Graphics/SVG/1.1/DTD/svg11-tiny.dtd'><svg baseProfile="tiny" id="Layer_1" overflow="scroll" version="1.1" viewBox="0 0 128 128" xml:space="preserve" xmlns="http://www.w3.org/2000/svg" xmlns:xlink="http://www.w3.org/1999/xlink"><g><g><path d="M64,41.8l-44.4,0c0,24.5,19.9,44.4,44.4,44.4s44.4-19.9,44.4-44.4H64z" fill="#7EB642" fill-rule="evenodd"/><path d="M64,41.8l-35.1,0c0,19.4,15.7,35.1,35.1,35.1s35.1-15.7,35.1-35.1H64z" fill="#D73426" fill-rule="evenodd"/><path d="M58.8,62.4c1.7,0,3.1,1.4,3.1,3.1c0,1.7-1.4,3.1-3.1,3.1c-1.7,0-3.1-1.4-3.1-3.1     C55.7,63.8,57,62.4,58.8,62.4" fill="#95221D" fill-rule="evenodd"/><path d="M43.3,49.5c1.7,0,3.1,1.4,3.1,3.1c0,1.7-1.4,3.1-3.1,3.1c-1.7,0-3.1-1.4-3.1-3.1     C40.2,50.8,41.6,49.5,43.3,49.5" fill="#95221D" fill-rule="evenodd"/><path d="M65.6,44.1c1.7,0,3.1,1.4,3.1,3.1c0,1.7-1.4,3.1-3.1,3.1c-1.7,0-3.1-1.4-3.1-3.1     C62.5,45.4,63.8,44.1,65.6,44.1" fill="#95221D" fill-rule="evenodd"/><path d="M76.8,59.7c1.7,0,3.1,1.4,3.1,3.1c0,1.7-1.4,3.1-3.1,3.1c-1.7,0-3.1-1.4-3.1-3.1     C73.7,61,75.1,59.7,76.8,59.7" fill="#95221D" fill-rule="evenodd"/><path d="M85.2,45.3c1.7,0,3.1,1.4,3.1,3.1c0,1.7-1.4,3.1-3.1,3.1c-1.7,0-3.1-1.4-3.1-3.1     C82.1,46.7,83.5,45.3,85.2,45.3" fill="#95221D" fill-rule="evenodd"/></g></g></svg>